<?xml version="1.0" encoding="UTF-8" standalone="no"?>
<!-- Created with Inkscape (http://www.inkscape.org/) -->

<svg
   xmlns:dc="http://purl.org/dc/elements/1.1/"
   xmlns:cc="http://creativecommons.org/ns#"
   xmlns:rdf="http://www.w3.org/1999/02/22-rdf-syntax-ns#"
   xmlns:svg="http://www.w3.org/2000/svg"
   xmlns="http://www.w3.org/2000/svg"
   xmlns:sodipodi="http://sodipodi.sourceforge.net/DTD/sodipodi-0.dtd"
   xmlns:inkscape="http://www.inkscape.org/namespaces/inkscape"
   width="223.88347"
   height="448"
   id="svg5398"
   version="1.1"
   inkscape:version="0.48+devel r12701"
   sodipodi:docname="child_playing_2.svg">
  <title
     id="title4253">child</title>
  <defs
     id="defs5400" />
  <sodipodi:namedview
     id="base"
     pagecolor="#ffffff"
     bordercolor="#666666"
     borderopacity="1.0"
     inkscape:pageopacity="0.0"
     inkscape:pageshadow="2"
     inkscape:zoom="0.98994949"
     inkscape:cx="21.975719"
     inkscape:cy="134.55277"
     inkscape:document-units="px"
     inkscape:current-layer="layer1"
     showgrid="false"
     inkscape:window-width="929"
     inkscape:window-height="981"
     inkscape:window-x="176"
     inkscape:window-y="-3"
     inkscape:window-maximized="0"
     fit-margin-top="4"
     fit-margin-left="4"
     fit-margin-right="4"
     fit-margin-bottom="4" />
  <metadata
     id="metadata5403">
    <rdf:RDF>
      <cc:Work
         rdf:about="">
        <dc:format>image/svg+xml</dc:format>
        <dc:type
           rdf:resource="http://purl.org/dc/dcmitype/StillImage" />
        <dc:title>child</dc:title>
        <dc:date>12/16/2013</dc:date>
        <dc:creator>
          <cc:Agent>
            <dc:title>edited by Paul Sherman</dc:title>
          </cc:Agent>
        </dc:creator>
        <dc:rights>
          <cc:Agent>
            <dc:title>PD</dc:title>
          </cc:Agent>
        </dc:rights>
        <dc:publisher>
          <cc:Agent>
            <dc:title>WPClipart</dc:title>
          </cc:Agent>
        </dc:publisher>
        <dc:subject>
          <rdf:Bag>
            <rdf:li>children</rdf:li>
            <rdf:li>people</rdf:li>
          </rdf:Bag>
        </dc:subject>
      </cc:Work>
    </rdf:RDF>
  </metadata>
  <g
     inkscape:label="Layer 1"
     inkscape:groupmode="layer"
     id="layer1"
     transform="translate(-74.8038,-709.06833)">
    <g
       transform="matrix(1.7892283,-0.0643625,0.0643625,1.7892283,-1517.4458,-384.10183)"
       id="g4868">
      <g
         id="g4870"
         transform="matrix(0.98693549,-0.1611159,0.1611159,0.98693549,-75.125561,92.254912)">
        <path
           sodipodi:nodetypes="csscc"
           inkscape:connector-curvature="0"
           id="path4872"
           d="m 893.53569,904.53263 c 6.20767,12.41532 15.51913,7.6779 18.1329,3.10384 2.61374,-4.57408 1.14351,-15.51914 -4.73742,-21.56344 -2.37052,-2.43636 -5.39086,-4.73741 -5.39086,-4.73741 z"
           style="fill:#3771c8;fill-opacity:1;stroke:#000000;stroke-width:1.28699994;stroke-linecap:butt;stroke-linejoin:miter;stroke-miterlimit:4;stroke-opacity:1;stroke-dasharray:none" />
        <path
           style="fill:#0066ff;fill-opacity:1;stroke:#000000;stroke-width:1.08500004;stroke-linecap:butt;stroke-linejoin:miter;stroke-miterlimit:4;stroke-opacity:1;stroke-dasharray:none"
           d="m 895.07852,902.05099 c 4.52247,9.04493 11.30614,5.59358 13.21035,2.26124 1.90419,-3.33235 0.83308,-11.30615 -3.45135,-15.7096 -1.72699,-1.77496 -3.9274,-3.45134 -3.9274,-3.45134 z"
           id="path4874"
           inkscape:connector-curvature="0"
           sodipodi:nodetypes="csscc" />
        <path
           sodipodi:nodetypes="csscc"
           inkscape:connector-curvature="0"
           id="path4876"
           d="m 898.10839,901.23106 c 2.39912,4.79823 5.99778,2.96733 7.00794,1.19956 1.01015,-1.76777 0.44194,-5.99778 -1.8309,-8.33376 -0.91615,-0.9416 -2.08344,-1.8309 -2.08344,-1.8309 z"
           style="fill:#ffffff;stroke:#000000;stroke-width:1px;stroke-linecap:butt;stroke-linejoin:miter;stroke-opacity:1" />
        <path
           inkscape:connector-curvature="0"
           id="path4878"
           d="m 878.59982,889.36177 c 3.53554,10.98541 8.20749,14.26841 11.80616,14.14214 3.59867,-0.12627 9.53332,-2.14658 11.74302,-6.31346 2.20971,-4.16688 2.08344,-11.42735 -0.69448,-14.77348 -2.77792,-3.34613 -17.86707,1.38896 -22.8547,6.9448 z"
           style="fill:#ffe6d5;fill-opacity:1;stroke:#000000;stroke-width:1px;stroke-linecap:butt;stroke-linejoin:miter;stroke-opacity:1" />
      </g>
      <g
         id="g4880"
         transform="translate(58.276909,-50.650151)">
        <path
           sodipodi:nodetypes="csscscsc"
           inkscape:connector-curvature="0"
           id="path4882"
           d="m 831.69638,930.01292 c -3.83928,0.98215 -1.78571,4.77679 0.13393,6.33929 1.63428,1.33023 4.50893,4.33035 9.41964,5.13393 4.91071,0.80357 11.56251,-0.58036 11.56251,-0.58036 0,0 2.45535,-0.53571 3.08035,-3.39286 0.625,-2.85714 0.44643,-4.46428 0.44643,-4.46428 0,0 -4.82143,6.60714 -11.07143,4.46428 -6.25,-2.14285 -10.44643,-9.19643 -13.57143,-7.5 z"
           style="fill:#3771c8;stroke:#000000;stroke-width:1px;stroke-linecap:butt;stroke-linejoin:miter;stroke-opacity:1" />
        <path
           inkscape:connector-curvature="0"
           id="path4884"
           d="m 841.07143,877.18361 -5.89285,43.57142 20.17857,4.46429 8.39286,-47.67857 z"
           style="fill:#ffe6d5;stroke:#000000;stroke-width:1px;stroke-linecap:butt;stroke-linejoin:miter;stroke-opacity:1" />
        <path
           sodipodi:nodetypes="csc"
           inkscape:connector-curvature="0"
           id="path4886"
           d="m 837.27505,903.7224 c 6.12405,4.79822 15.7205,4.35629 18.49842,4.23002 2.77792,-0.12627 2.77792,0.12627 2.77792,0.12627"
           style="fill:none;stroke:#000000;stroke-width:1px;stroke-linecap:butt;stroke-linejoin:miter;stroke-opacity:1" />
        <path
           transform="translate(0,308.2677)"
           inkscape:connector-curvature="0"
           id="path4888"
           d="m 844.96123,614.03346 c -4.83622,-1.08118 -8.85277,-2.02542 -8.92566,-2.09831 -0.12798,-0.12798 1.8156,-15.03368 1.98195,-15.20004 0.0452,-0.0452 0.87702,0.29854 1.84857,0.76379 4.16413,1.99409 7.76428,2.71707 13.70459,2.75217 l 4.10946,0.0243 -0.12912,0.63134 c -0.071,0.34724 -0.64475,3.58604 -1.27496,7.19734 -0.6302,3.61129 -1.20873,6.87851 -1.28561,7.26047 -0.10367,0.51505 -0.28141,0.68676 -0.68794,0.66462 -0.30148,-0.0164 -4.50505,-0.91447 -9.34128,-1.99566 l 0,0 z"
           style="fill:#f9f9f9;fill-opacity:1;stroke:none" />
        <path
           inkscape:connector-curvature="0"
           id="path4890"
           d="m 831.6071,930.19149 c 0,0 2.85714,-12.14285 8.57143,-13.83928 5.71428,-1.69643 11.25,-0.80357 13.75,2.94643 2.5,3.75 2.14285,14.55357 2.14285,14.55357 0,0 -1.78571,4.375 -9.82143,4.28571 -8.03571,-0.0893 -13.39285,-4.91071 -14.64285,-7.94643 z"
           style="fill:#0066ff;stroke:#000000;stroke-width:1px;stroke-linecap:butt;stroke-linejoin:miter;stroke-opacity:1" />
        <g
           id="g4892">
          <path
             sodipodi:nodetypes="cssszscc"
             inkscape:connector-curvature="0"
             id="path4894"
             d="m 837.0184,921.8917 c 4.28572,-3.92857 8.88986,-2.2476 11.02679,-1.74107 1.0804,0.25609 5.22321,2.72321 5.3125,4.95535 0.0893,2.23215 -1.20536,3.34822 -2.63393,2.27679 -1.42857,-1.07143 -1.75144,-3.7363 -4.46429,-4.28571 -2.71285,-0.54941 -5.63993,-0.4397 -6.57743,0.94423 -0.9375,1.38393 -3.28864,1.24327 -3.24399,-0.14066 0.0446,-1.38393 0.58035,-2.00893 0.58035,-2.00893 z"
             style="fill:#ffffff;stroke:#000000;stroke-width:1px;stroke-linecap:butt;stroke-linejoin:miter;stroke-opacity:1" />
          <path
             style="fill:#ffffff;stroke:#000000;stroke-width:1px;stroke-linecap:butt;stroke-linejoin:miter;stroke-opacity:1"
             d="m 836.38705,925.11156 c 4.28572,-3.92857 8.88986,-2.2476 11.02679,-1.74107 1.0804,0.25609 5.22321,2.72321 5.3125,4.95535 0.0893,2.23215 -1.20536,3.34822 -2.63393,2.27679 -1.42857,-1.07143 -1.75144,-3.7363 -4.46429,-4.28571 -2.71285,-0.54941 -5.63993,-0.4397 -6.57743,0.94423 -0.9375,1.38393 -3.28864,1.24327 -3.24399,-0.14066 0.0446,-1.38393 0.58035,-2.00893 0.58035,-2.00893 z"
             id="path4896"
             inkscape:connector-curvature="0"
             sodipodi:nodetypes="cssszscc" />
        </g>
        <path
           transform="translate(0,308.2677)"
           inkscape:connector-curvature="0"
           id="path4898"
           d="m 836.32641,609.45687 c 0.39888,-3.60257 1.64667,-12.46344 1.77287,-12.58964 0.0323,-0.0323 0.43034,0.10316 0.88453,0.30103 0.5352,0.23316 0.82581,0.43267 0.82581,0.56695 0,0.15246 0.20842,0.25052 0.78918,0.37126 0.43405,0.0902 1.30057,0.34549 1.9256,0.56722 0.62503,0.22173 1.51997,0.50501 1.98874,0.62953 0.7129,0.18936 0.85169,0.2698 0.84847,0.49176 -0.002,0.14595 -0.24554,1.76949 -0.54095,3.60788 l -0.53711,3.34252 -1.17142,0.15691 c -1.22288,0.1638 -3.16979,0.64264 -3.94233,0.9696 -0.60382,0.25555 -1.8694,1.21783 -2.45681,1.86802 l -0.47629,0.5272 0.0897,-0.81024 0,0 z"
           style="fill:#f2f2f2;fill-opacity:1;stroke:none" />
      </g>
      <g
         id="g4900"
         transform="matrix(-1,0,0,1,1800.2293,-48.272704)">
        <path
           style="fill:#ffe6d5;stroke:#000000;stroke-width:1px;stroke-linecap:butt;stroke-linejoin:miter;stroke-opacity:1"
           d="m 907.13339,781.91705 c 12.50063,-25.00128 13.38452,-38.51207 13.38452,-38.51207 0,0 4.41942,-4.04061 4.79822,-7.07107 0.37881,-3.03045 -0.63134,-3.40926 1.38896,-3.78807 2.02031,-0.37881 5.49359,0.47724 5.44895,-1.26383 -0.0447,-1.74107 -1.875,-2.27679 -3.08036,-2.32143 -1.20536,-0.0446 -2.09822,0 -2.09822,0 0,0 4.41965,-2.41071 4.19643,-3.97321 -0.22321,-1.5625 -0.71428,-2.14286 -1.60714,-2.14286 -0.89286,0 -5.17857,3.57143 -5.17857,3.57143 0,0 4.55357,-5.49107 4.24107,-7.09822 -0.3125,-1.60714 -1.91964,-1.74107 -2.54464,-1.33928 -0.625,0.40178 -4.86607,5.3125 -4.86607,5.3125 0,0 3.61607,-5.625 2.36607,-6.5625 -1.25,-0.9375 -1.65179,-1.74107 -3.16965,-0.0893 -1.51785,1.65179 -3.61607,6.38393 -3.61607,6.38393 0,0 -1.29464,-3.52678 -2.36607,-2.05357 -1.07143,1.47321 -15.37865,48.19436 -15.37865,48.19436 0,0 4.67195,10.6066 8.08122,12.75318 z"
           id="path4902"
           inkscape:connector-curvature="0" />
        <path
           style="fill:none;stroke:#000000;stroke-width:1px;stroke-linecap:butt;stroke-linejoin:miter;stroke-opacity:1"
           d="m 916.91965,414.54091 c -0.0447,0.49107 1.11607,3.88393 1.11607,3.88393 0,0 2.27678,0.3125 3.4375,1.875 1.16071,1.5625 0.80357,2.72321 0.80357,2.72321"
           id="path4904"
           inkscape:connector-curvature="0"
           transform="translate(0,308.2677)" />
      </g>
      <g
         id="g4906"
         transform="translate(55.625259,-49.639999)">
        <path
           inkscape:connector-curvature="0"
           id="path4908"
           d="m 906.69145,783.77952 c 12.50063,-25.00128 13.82646,-40.37454 13.82646,-40.37454 0,0 4.41942,-4.04061 4.79822,-7.07107 0.37881,-3.03045 -0.63134,-3.40926 1.38896,-3.78807 2.02031,-0.37881 5.49359,0.47724 5.44895,-1.26383 -0.0447,-1.74107 -1.875,-2.27679 -3.08036,-2.32143 -1.20536,-0.0446 -2.09822,0 -2.09822,0 0,0 4.41965,-2.41071 4.19643,-3.97321 -0.22321,-1.5625 -0.71428,-2.14286 -1.60714,-2.14286 -0.89286,0 -5.17857,3.57143 -5.17857,3.57143 0,0 4.55357,-5.49107 4.24107,-7.09822 -0.3125,-1.60714 -1.91964,-1.74107 -2.54464,-1.33928 -0.625,0.40178 -4.86607,5.3125 -4.86607,5.3125 0,0 3.61607,-5.625 2.36607,-6.5625 -1.25,-0.9375 -1.65179,-1.74107 -3.16965,-0.0893 -1.51785,1.65179 -3.61607,6.38393 -3.61607,6.38393 0,0 -1.29464,-3.52678 -2.36607,-2.05357 -1.07143,1.47321 -15.37865,48.19436 -15.37865,48.19436 0,0 4.23001,12.46907 7.63928,14.61566 z"
           style="fill:#ffe6d5;stroke:#000000;stroke-width:1px;stroke-linecap:butt;stroke-linejoin:miter;stroke-opacity:1"
           sodipodi:nodetypes="ccsscccsscsscsscscc" />
        <path
           transform="translate(0,308.2677)"
           inkscape:connector-curvature="0"
           id="path4910"
           d="m 916.91965,414.54091 c -0.0447,0.49107 1.11607,3.88393 1.11607,3.88393 0,0 2.27678,0.3125 3.4375,1.875 1.16071,1.5625 0.80357,2.72321 0.80357,2.72321"
           style="fill:none;stroke:#000000;stroke-width:1px;stroke-linecap:butt;stroke-linejoin:miter;stroke-opacity:1" />
      </g>
      <path
         style="fill:#d4aa00;stroke:#aa8800;stroke-width:1px;stroke-linecap:butt;stroke-linejoin:miter;stroke-opacity:1"
         d="m 889.43108,793.56165 59.77679,-0.98214 -27.14286,-20.53571 z"
         id="path4912"
         inkscape:connector-curvature="0"
         sodipodi:nodetypes="cccc" />
      <path
         style="fill:#ffccaa;stroke:#000000;stroke-width:1px;stroke-linecap:butt;stroke-linejoin:miter;stroke-opacity:1"
         d="m 898.4043,783.47237 c -0.0893,0.3125 -1.11608,11.29464 -1.11608,11.29464 0,0 11.07143,1.91964 16.25,1.51786 5.17858,-0.40179 22.8125,-1.47322 22.8125,-1.47322 z"
         id="path4914"
         inkscape:connector-curvature="0" />
      <path
         style="fill:#c87137;fill-opacity:1;stroke:#000000;stroke-width:1px;stroke-linecap:butt;stroke-linejoin:miter;stroke-opacity:1"
         d="m 897.69413,800.81794 c 0,0 -2.52538,23.86486 -3.28299,26.76904 -0.75762,2.90419 -1.2627,5.80838 5.42957,6.81853 6.69226,1.01016 20.32932,1.13643 23.35977,0.63135 3.03046,-0.50508 2.27285,-4.04061 2.65165,-8.71257 0.37881,-4.67195 0.12627,-8.9651 0.12627,-8.9651 l 6.31346,16.92006 c 0,0 3.03045,1.13642 7.3236,0 4.29315,-1.13643 6.9448,-1.13643 13.00572,-4.79823 6.06091,-3.6618 9.84898,-7.44987 9.84898,-7.44987 l -9.09137,-24.24367 c 0,0 -51.77032,0.37881 -55.68466,3.03046 z"
         id="path4916"
         inkscape:connector-curvature="0" />
      <path
         style="fill:#83562c;fill-opacity:1;stroke:#803300;stroke-width:1px;stroke-linecap:butt;stroke-linejoin:miter;stroke-opacity:1"
         d="m 897.94667,790.21134 c 2.14657,5.93465 12.37437,4.54569 16.54125,4.54569 4.16688,0 31.69353,-0.50508 34.72399,-4.16688 3.03046,-3.66181 4.41942,-6.31346 4.41942,-6.31346 0,0 1.6415,12.75318 0.88388,15.02602 -0.75761,2.27285 -13.63706,5.3033 -32.45115,4.79823 -18.81409,-0.50508 -24.11739,0.25254 -25.38008,-2.14658 -1.26269,-2.39911 -0.50508,-11.74302 1.26269,-11.74302 z"
         id="path4918"
         inkscape:connector-curvature="0" />
      <path
         style="fill:#a05a2c;fill-opacity:1;stroke:#000000;stroke-width:1px;stroke-linecap:butt;stroke-linejoin:miter;stroke-opacity:1"
         d="m 926.86229,803.97467 c -0.12627,15.40483 -0.12627,15.40483 -0.12627,15.40483 0,0 -6.69226,-7.07107 -6.18719,-14.64722 0.50508,-7.57614 6.31346,-0.75761 6.31346,-0.75761 z"
         id="path4920"
         inkscape:connector-curvature="0" />
      <path
         style="fill:#c9b4a3;fill-opacity:1;stroke:#000000;stroke-width:1px;stroke-linecap:butt;stroke-linejoin:miter;stroke-opacity:1"
         d="m 918.02345,794.82016 c -1.51523,2.77792 -1.51523,8.64943 -0.12627,9.21764 1.38896,0.56821 11.17481,1.01016 12.31124,0 1.13642,-1.01015 2.0203,-8.83883 0.0631,-9.97525 -1.95717,-1.13642 -11.23795,-0.63135 -12.2481,0.75761 z"
         id="path4922"
         inkscape:connector-curvature="0" />
      <path
         style="fill:#3c2a12;fill-opacity:1;stroke:#000000;stroke-width:1px;stroke-linecap:butt;stroke-linejoin:miter;stroke-opacity:1"
         d="m 905.83849,794.8833 c -0.0631,8.71256 -0.44195,9.1545 -0.44195,9.1545 l -3.15672,-0.56821 0.50507,-9.28077 z"
         id="path4924"
         inkscape:connector-curvature="0" />
      <path
         style="fill:#30220f;fill-opacity:1;stroke:#000000;stroke-width:1px;stroke-linecap:butt;stroke-linejoin:miter;stroke-opacity:1"
         d="m 943.65607,792.35791 0.94702,10.60661 4.23001,-1.01016 -1.8309,-10.35406 z"
         id="path4926"
         inkscape:connector-curvature="0" />
      <path
         inkscape:connector-curvature="0"
         id="path4928"
         d="m 897.32169,723.16861 c 2.67857,4.01786 10.89286,9.82143 12.76786,10.625 1.875,0.80357 5,3.92857 6.69643,4.55357 1.69643,0.625 4.55357,0.44643 4.55357,0.44643 l 0,0"
         style="fill:none;stroke:#999999;stroke-width:1px;stroke-linecap:butt;stroke-linejoin:miter;stroke-opacity:1" />
      <path
         style="fill:#ffcc00;stroke:#aa8800;stroke-width:1px;stroke-linecap:butt;stroke-linejoin:miter;stroke-opacity:1"
         d="m 901.97572,719.00808 52.32143,0.35714 10.35714,17.85715 c 0,0 -8.75,5.17857 -10.89285,16.07143 -2.14286,10.89285 1.42857,40.89285 1.42857,40.89285 0,0 -6.42857,6.96429 -21.96429,4.28572 -15.53571,-2.67857 -28.03571,-10.17857 -33.57143,-9.46429 -5.53571,0.71429 -10.53571,3.75 -10.53571,3.75 0,0 11.42857,-18.75 11.25,-41.60714 -5,-14.64286 -11.78571,-21.07143 -11.78571,-21.07143 z"
         id="path4930"
         inkscape:connector-curvature="0" />
      <path
         style="fill:#ffbd00;fill-opacity:1;stroke:none"
         d="m 917.08325,737.96314 c -0.88393,-0.0936 -1.22142,-0.26964 -2.93061,-1.52831 -2.44285,-1.79896 -3.49235,-2.43052 -5.67839,-3.41709 -2.81659,-1.27115 -4.52732,-2.46276 -7.72698,-5.38227 -1.48445,-1.35448 -3.69284,-3.61062 -3.69284,-3.77268 0,-0.0467 0.58259,-0.56822 1.29464,-1.15888 l 1.29465,-1.07392 0.53528,0.60315 c 4.37764,4.9326 10.0537,8.76043 15.78168,10.64286 l 0.60268,0.19806 0,0.44011 c 0,1.18086 0.43257,2.87658 1.01233,3.96839 0.16849,0.31732 0.28085,0.57159 0.24969,0.56506 -0.0312,-0.007 -0.36512,-0.0446 -0.74213,-0.0845 l 0,0 z"
         id="path4932"
         inkscape:connector-curvature="0" />
      <path
         style="fill:#ffbd00;fill-opacity:1;stroke:none"
         d="m 934.55443,738.44374 c -0.29464,-0.0156 -0.62853,-0.0496 -0.74197,-0.0754 -0.20546,-0.0469 -0.20503,-0.0487 0.10977,-0.47756 0.54804,-0.74657 1.02995,-1.86685 1.43063,-3.32575 l 0.13827,-0.50344 1.00487,-0.24301 c 4.05087,-0.97966 7.95242,-2.67539 11.46016,-4.98095 2.20669,-1.4504 4.63414,-3.47471 6.35343,-5.29828 0.57289,-0.60764 1.06472,-1.1048 1.09295,-1.1048 0.0802,0 1.08541,1.78931 1.05446,1.87696 -0.0735,0.20805 -2.3991,2.56482 -3.7227,3.77253 -3.17776,2.89953 -4.84058,4.06106 -7.64416,5.33967 -2.313,1.05488 -3.3049,1.65041 -5.75892,3.4576 -1.76449,1.2994 -2.01378,1.42456 -3.05612,1.53436 -0.4553,0.048 -0.90817,0.0803 -1.00638,0.0719 -0.0982,-0.008 -0.41965,-0.0281 -0.71429,-0.0438 z"
         id="path4934"
         inkscape:connector-curvature="0" />
      <path
         style="fill:#ffe6d5;stroke:#aa8800;stroke-width:1px;stroke-linecap:butt;stroke-linejoin:miter;stroke-opacity:1"
         d="m 917.68059,730.13047 c -2.58852,7.82869 4.35628,12.18497 8.33376,11.93243 3.97747,-0.25254 6.06091,-2.52538 7.63928,-4.73509 1.57836,-2.20971 1.95717,-7.82868 1.95717,-7.82868 z"
         id="path4936"
         inkscape:connector-curvature="0" />
      <path
         style="fill:none;stroke:#aa8800;stroke-width:1px;stroke-linecap:butt;stroke-linejoin:miter;stroke-opacity:1"
         d="m 954.83287,750.70451 c -4.10714,-0.17857 -13.03571,-17.85714 -13.21428,-22.23214 -0.17858,-4.375 -0.26786,-10.89286 -0.26786,-10.89286"
         id="path4938"
         inkscape:connector-curvature="0" />
      <path
         style="fill:none;stroke:#aa8800;stroke-width:1px;stroke-linecap:butt;stroke-linejoin:miter;stroke-opacity:1"
         d="m 898.94001,746.4188 c 6.07143,-2.76786 15,-14.82143 16.25,-19.55358 1.25,-4.73214 -0.80357,-13.66071 -0.80357,-13.66071"
         id="path4940"
         inkscape:connector-curvature="0" />
      <circle
         r="39.39595"
         cy="432.20987"
         cx="749.02814"
         style="fill:#ffe6d5;fill-opacity:1;stroke:#ffccaa"
         id="path4942"
         transform="matrix(0.91677138,0,0,0.91677138,241.16435,302.00063)"
         d="m 788.42409,432.20987 a 39.39595,39.39595 0 0 1 -39.39595,39.39595 39.39595,39.39595 0 0 1 -39.39595,-39.39595 39.39595,39.39595 0 0 1 39.39595,-39.39595 39.39595,39.39595 0 0 1 39.39595,39.39595 z" />
      <path
         style="fill:#ffccaa;stroke:none"
         d="m 896.875,408.29091 c -4.10714,-11.42857 -3.57143,-18.125 1.60715,-24.91071 5.17857,-6.78572 22.60471,-7.89586 28.30357,-8.48215 5.69886,-0.58629 11.21371,-1.00598 14.10714,-5.98214 0,0 -1.51786,3.57143 6.60714,9.73214 8.125,6.16072 11.64798,9.47111 12.85715,14.375 1.60714,6.51786 -0.35715,13.92857 -0.35715,13.92857 0,0 9.28572,-17.32142 4.01786,-26.33928 -5.26786,-9.01786 -10,-17.32143 -20.26786,-17.32143 -10.26785,0 -26.42857,-4.10714 -39.375,3.66071 -12.94643,7.76786 -15.35714,23.83929 -11.78571,32.85715 3.57143,9.01785 4.28571,8.48214 4.28571,8.48214 z"
         id="path4944"
         inkscape:connector-curvature="0"
         transform="translate(0,308.2677)"
         sodipodi:nodetypes="cszcsscssssc" />
      <path
         style="fill:#4d4d4d;stroke:#000000;stroke-width:0.91677135"
         d="m 925.19197,646.94939 c -1.61615,0 0.11174,2.1113 1.74759,4.21141 -1.40442,0.0212 -2.71762,0.0697 -3.49519,0.1719 -13.60082,1.78761 -25.02881,9.66083 -31.25618,21.57277 -3.04482,5.82426 -4.52655,11.95642 -4.52655,18.67923 0,8.26386 2.29747,15.80009 6.87578,22.57549 1.34857,1.99571 2.36924,3.31919 2.17733,2.80761 -0.0561,-0.14958 -0.56199,-1.303 -1.11731,-2.57842 -1.66148,-3.81587 -2.39134,-6.74221 -2.57842,-10.31368 -0.30233,-5.7712 2.25864,-12.48634 5.87306,-15.49916 1.89606,-1.5805 2.91308,-2.12146 6.44605,-3.40924 2.54771,-0.92866 3.86811,-1.69387 5.21414,-2.97951 l 1.00272,-0.94542 1.20326,0.54434 c 1.45357,0.66999 3.29464,1.08499 4.8417,1.08866 2.2594,0.006 5.91113,-0.99856 8.79528,-2.43517 l 1.57569,-0.80218 0.68759,0.31514 c 0.46221,0.20353 1.17408,0.28704 2.29192,0.28649 1.85471,-8.5e-4 3.04908,-0.39092 4.92765,-1.633 1.32397,-0.8754 3.67386,-3.09343 4.75576,-4.4979 l 0.83082,-1.06003 0.48704,1.89085 c 0.56303,2.15047 0.94826,3.22639 1.89083,5.09954 1.7015,3.38128 3.22702,4.95687 7.33417,7.64931 3.84568,2.52105 5.56454,3.87907 7.30553,5.72982 2.05372,2.18313 2.7506,3.63913 3.12275,6.70389 l 0.22919,1.89084 0.28649,-0.68758 c 0.165,-0.37377 0.36676,-1.28593 0.42973,-2.03408 l 0.1146,-1.34651 0.60164,0 c 0.71107,0 0.69379,-0.21831 0.34379,2.80761 -0.62873,5.43669 -2.15174,11.00991 -4.26872,15.61377 -0.39428,0.85746 -0.71623,1.58724 -0.71623,1.63299 0,0.44155 2.5188,-2.83301 3.86763,-5.01359 3.25473,-5.26156 5.21584,-10.93406 5.93037,-17.21811 0.30867,-2.71535 0.11453,-8.22499 -0.37245,-10.97261 -1.1556,-6.5202 -3.60215,-12.17973 -7.59201,-17.5619 -1.60492,-2.16501 -5.49349,-6.11616 -7.56336,-7.67796 -5.39167,-4.06838 -11.08214,-6.60685 -17.4473,-7.79256 0.93331,-1.72934 1.97462,-4.2048 0.40108,-4.35467 -1.89213,-0.1802 -3.19863,2.60185 -3.69574,3.86763 -0.29627,-0.0258 -0.61567,-0.0385 -0.97406,-0.0573 -1.37881,-1.36107 -4.47527,-4.26871 -5.98766,-4.26871 z"
         id="path4946"
         inkscape:connector-curvature="0" />
      <ellipse
         ry="4.1668792"
         rx="3.2198613"
         cy="436.75558"
         cx="829.14581"
         style="fill:#ffecd4;fill-opacity:1;stroke:#ffccaa;stroke-width:1;stroke-linecap:round;stroke-linejoin:miter;stroke-miterlimit:4;stroke-opacity:1;stroke-dasharray:none;stroke-dashoffset:0"
         id="path4948"
         transform="matrix(0.91677138,0,0,0.91677138,130.15063,300.49575)"
         d="m 832.36567,436.75558 a 3.2198613,4.1668792 0 0 1 -3.21986,4.16688 3.2198613,4.1668792 0 0 1 -3.21986,-4.16688 3.2198613,4.1668792 0 0 1 3.21986,-4.16687 3.2198613,4.1668792 0 0 1 3.21986,4.16687 z" />
      <path
         style="fill:#ffecd4;fill-opacity:1;stroke:#ffccaa;stroke-width:0.91677135;stroke-linecap:round;stroke-linejoin:miter;stroke-miterlimit:4;stroke-opacity:1;stroke-dashoffset:0"
         d="m 967.6368,701.25265 c -0.55255,2.03614 -2.27595,3.34062 -3.84932,2.91365 -1.57337,-0.42697 -1.36667,-3.50008 -0.81413,-5.53621 0.55255,-2.03612 1.24171,-2.26422 2.81509,-1.83725 1.57337,0.42696 2.40091,2.42369 1.84836,4.45981 z"
         id="path4950"
         inkscape:connector-curvature="0"
         sodipodi:nodetypes="sssss" />
      <circle
         r="2.588516"
         cy="429.49509"
         cx="856.67249"
         style="fill:#000000;fill-opacity:1;stroke:none"
         id="path4952"
         transform="matrix(0.91677138,0,0,0.91677138,127.69499,298.04012)"
         d="m 859.261,429.49509 a 2.588516,2.588516 0 0 1 -2.58851,2.58851 2.588516,2.588516 0 0 1 -2.58852,-2.58851 2.588516,2.588516 0 0 1 2.58852,-2.58852 2.588516,2.588516 0 0 1 2.58851,2.58852 z" />
      <circle
         r="2.588516"
         cy="429.49509"
         cx="856.67249"
         transform="matrix(0.91677138,0,0,0.91677138,158.30861,298.20383)"
         id="path4954"
         style="fill:#000000;fill-opacity:1;stroke:none"
         d="m 859.261,429.49509 a 2.588516,2.588516 0 0 1 -2.58851,2.58851 2.588516,2.588516 0 0 1 -2.58852,-2.58851 2.588516,2.588516 0 0 1 2.58852,-2.58852 2.588516,2.588516 0 0 1 2.58851,2.58852 z" />
      <path
         style="fill:none;stroke:#000000;stroke-width:0.91677135px;stroke-linecap:round;stroke-linejoin:round;stroke-opacity:1"
         d="m 927.90545,698.13374 c -1.30968,3.92901 -1.6371,5.4024 -0.32742,5.4024 1.30967,0 2.35331,-0.61392 2.35331,-0.61392"
         id="path4956"
         inkscape:connector-curvature="0"
         sodipodi:nodetypes="csc" />
      <path
         style="fill:#ffffff;stroke:#000000;stroke-width:0.5;stroke-miterlimit:4;stroke-dasharray:none"
         d="m 914.15388,709.10226 c 8.51287,5.07497 21.32655,3.67118 26.8483,1.30967 -3.82216,7.42434 -3.23894,13.09453 -13.71633,12.93082 -10.47739,-0.16371 -11.8223,-9.00181 -13.13197,-14.24049 z"
         id="path4958"
         inkscape:connector-curvature="0"
         sodipodi:nodetypes="ccsc" />
      <path
         style="fill:#333333;fill-opacity:1;stroke:none"
         d="m 961.98341,699.15114 c -0.031,-0.43311 -0.47546,-2.05894 -0.72492,-2.65205 -0.62684,-1.49036 -2.40434,-3.64854 -4.37189,-5.30824 -1.28411,-1.08317 -2.1887,-1.74364 -5.16529,-3.7713 -1.33702,-0.91078 -2.76955,-1.93167 -3.18339,-2.26864 -3.05876,-2.49057 -4.9426,-5.84148 -6.31054,-11.225 -0.24267,-0.95501 -0.47727,-1.77833 -0.52134,-1.82958 -0.0442,-0.0512 -0.54969,0.49572 -1.12357,1.21548 -1.1103,1.39253 -3.22549,3.51298 -4.37298,4.38385 -1.57183,1.19292 -2.88154,1.78354 -4.30932,1.94328 -1.24931,0.13976 -2.7551,-0.008 -3.38867,-0.33018 l -0.49896,-0.25454 -1.68951,0.81566 c -4.26353,2.05831 -7.96677,2.82749 -10.79079,2.24131 -0.61262,-0.12715 -1.57632,-0.42167 -2.14156,-0.65447 -0.56525,-0.2328 -1.24467,-0.50838 -1.50983,-0.61238 l -0.48211,-0.1891 -0.95399,0.89746 c -1.64265,1.54528 -2.5624,2.07347 -5.77982,3.31922 -2.72988,1.05697 -3.36633,1.36006 -4.64114,2.2102 -2.13302,1.42244 -3.96003,3.57169 -5.15139,6.05993 -0.27436,0.57301 -0.50136,1.01184 -0.50446,0.97517 -0.003,-0.0367 0.0741,-0.6342 0.1714,-1.32785 0.64385,-4.5867 2.21463,-7.74608 4.91039,-9.8765 1.12436,-0.88858 2.02386,-1.26076 4.52064,-1.87046 3.05859,-0.74691 3.87956,-1.20232 6.001,-3.32886 0.84933,-0.85138 1.96406,-1.85549 2.47718,-2.23134 1.89766,-1.39004 4.01048,-2.19297 5.77053,-2.19297 1.28822,0 1.31468,0.0369 1.43152,1.99256 0.0914,1.52963 0.14905,1.75444 0.5769,2.2494 0.33635,0.38909 0.4348,0.43316 1.07022,0.47913 1.2023,0.087 2.51852,-0.41804 5.38375,-2.06565 3.90966,-2.24819 9.00356,-5.56646 13.83012,-9.00917 l 2.74513,-1.95808 0.87526,0.66675 c 3.56265,2.71389 7.78246,6.8161 10.3649,10.07602 3.07041,3.8759 4.32085,6.23577 5.78085,10.90982 1.34152,4.29474 2.81904,10.25524 2.65081,10.69364 -0.0337,0.0876 -0.20811,0.15939 -0.38773,0.15939 -0.30842,0 -0.33022,0.0338 -0.39237,0.60773 -0.12515,1.15605 -0.14777,1.30127 -0.16503,1.06036 l 0,0 z"
         id="path4960"
         inkscape:connector-curvature="0" />
      <path
         style="fill:#666666;fill-opacity:1;stroke:none"
         d="m 891.47168,675.70327 c -0.002,-0.0411 0.24897,-0.61415 0.55739,-1.27336 2.99949,-6.41097 8.20123,-12.36313 14.19862,-16.24695 5.77526,-3.73996 12.67724,-6.07087 19.04249,-6.43093 1.11419,-0.0631 2.16459,-0.12656 2.33422,-0.14118 0.29634,-0.0256 0.25934,-0.0916 -0.94473,-1.68523 -1.21231,-1.60458 -1.61356,-2.26535 -1.46553,-2.41338 0.14021,-0.1402 1.13626,0.34185 2.0356,0.98517 0.50431,0.36075 1.56856,1.24193 2.36501,1.95819 l 1.44808,1.3023 0.73118,-0.002 0.73117,-0.002 0.53722,-1.12923 c 0.80027,-1.68216 1.78494,-2.68727 2.63262,-2.68727 0.68946,0 0.57826,0.92033 -0.34859,2.88553 -0.31311,0.66386 -0.52901,1.24393 -0.4798,1.28904 0.0492,0.0451 0.63647,0.19534 1.30498,0.33385 5.46312,1.13186 10.43396,3.30658 15.16454,6.63445 1.8038,1.26893 4.75674,3.85658 4.16184,3.64699 -0.0985,-0.0347 -0.58882,-0.17807 -1.08953,-0.31857 -1.67389,-0.46969 -3.9256,-1.28538 -5.50326,-1.99357 -4.81282,-2.1604 -11.18368,-3.47828 -19.44766,-4.02296 -2.5837,-0.1703 -7.46018,-0.17648 -8.73988,-0.0111 -7.65402,0.98926 -14.95236,5.40693 -24.88891,15.06522 -1.33734,1.29989 -2.8595,2.8062 -3.38261,3.34739 -0.5231,0.54117 -0.95262,0.95029 -0.95446,0.90916 l 0,0 z"
         id="path4962"
         inkscape:connector-curvature="0" />
      <ellipse
         ry="2.5253813"
         rx="5.0507627"
         cy="436.75558"
         cx="851.93738"
         style="fill:#ffc9d5;fill-opacity:1;stroke:none"
         id="path4964"
         transform="matrix(0.91677138,0,0,0.91677138,130.15063,300.49575)"
         d="m 856.98814,436.75558 a 5.0507627,2.5253813 0 0 1 -5.05076,2.52539 5.0507627,2.5253813 0 0 1 -5.05076,-2.52539 5.0507627,2.5253813 0 0 1 5.05076,-2.52538 5.0507627,2.5253813 0 0 1 5.05076,2.52538 z" />
      <ellipse
         ry="2.5253813"
         rx="5.0507627"
         cy="436.75558"
         cx="851.93738"
         transform="matrix(0.91677138,0,0,0.91677138,165.68891,301.65335)"
         id="path4966"
         style="fill:#ffc9d5;fill-opacity:1;stroke:none"
         d="m 856.98814,436.75558 a 5.0507627,2.5253813 0 0 1 -5.05076,2.52539 5.0507627,2.5253813 0 0 1 -5.05076,-2.52539 5.0507627,2.5253813 0 0 1 5.05076,-2.52538 5.0507627,2.5253813 0 0 1 5.05076,2.52538 z" />
      <path
         style="fill:#000000;stroke:none"
         d="m 946.81408,684.45624 c -5.114,-1.91254 -7.10223,-0.13797 -6.36534,0.30629 0.73686,0.44427 5.7948,0.45905 6.50714,1.14764 0.71231,0.68861 1.16906,-0.58176 -0.1418,-1.45393 z"
         id="path4968"
         inkscape:connector-curvature="0" />
      <path
         inkscape:connector-curvature="0"
         id="path4970"
         d="m 910.15241,683.59677 c 5.114,-1.91254 7.10224,-0.13797 6.36534,0.30629 -0.73687,0.44426 -5.79481,0.45905 -6.50714,1.14764 -0.71231,0.6886 -1.16906,-0.58176 0.1418,-1.45393 z"
         style="fill:#000000;stroke:none" />
      <path
         style="fill:#ffbd00;fill-opacity:1;stroke:none"
         d="m 937.00702,798.39618 c -1.34261,-0.1279 -4.21128,-0.55476 -5.36644,-0.79853 -0.73524,-0.15515 -0.68181,-0.16248 1.80976,-0.2483 4.66523,-0.16069 9.54023,-0.6365 11.33333,-1.10616 3.50192,-0.91724 6.08481,-3.49302 8.32289,-8.30001 0.54201,-1.16414 0.6906,-1.39508 0.73999,-1.15012 0.034,0.16857 0.21698,1.86211 0.40665,3.76341 l 0.34484,3.45691 -0.30392,0.24165 c -2.51418,1.99902 -5.89919,3.35045 -9.90036,3.95262 -1.64278,0.24724 -5.68705,0.35046 -7.38674,0.18853 z"
         id="path4972"
         inkscape:connector-curvature="0" />
      <path
         style="fill:#aa8800;fill-opacity:1;stroke:none"
         d="m 899.48144,780.74116 c 6.69226,-3.283 19.69798,-0.25254 19.69798,-0.25254 -6.22263,-1.07285 -19.69798,0.25254 -19.69798,0.25254 z"
         id="path4974"
         inkscape:connector-curvature="0" />
      <path
         inkscape:connector-curvature="0"
         id="path4976"
         d="m 901.77656,778.31595 c 5.33537,-5.2056 18.63771,-6.38044 18.63771,-6.38044 -6.247,0.9204 -18.63771,6.38044 -18.63771,6.38044 z"
         style="fill:#aa8800;fill-opacity:1;stroke:none" />
      <path
         style="fill:#a05a2c;fill-opacity:1;stroke:none"
         d="m 914.16672,806.45067 c -4.42593,-0.16499 -16.32592,-0.83102 -16.41355,-0.91865 -0.018,-0.018 0.015,-0.46473 0.0732,-0.9928 0.0907,-0.82312 0.11999,-0.95441 0.20502,-0.92006 0.28792,0.1163 1.39506,0.34754 2.08793,0.43609 0.43405,0.0555 1.40001,0.1294 2.14658,0.16428 1.15279,0.0539 2.88693,0.26317 3.41772,0.41253 0.0701,0.0197 0.11597,-0.0221 0.14309,-0.1301 l 0.0399,-0.15912 1.71937,0.0332 c 0.94566,0.0183 3.59875,0.0604 5.89575,0.0938 3.35005,0.0486 4.24945,0.0793 4.54569,0.15512 0.32345,0.0828 1.66857,0.28488 1.89631,0.28488 0.0636,0 0.0829,0.16686 0.0829,0.71632 l 0,0.71632 -0.80496,0.0401 c -1.03426,0.0515 -4.29651,0.0957 -5.03498,0.0682 l 0,0 z"
         id="path4978"
         inkscape:connector-curvature="0" />
      <path
         style="fill:#784421;fill-opacity:1;stroke:none"
         d="m 923.02134,806.31454 -1.94139,-0.0176 0,-0.63981 0,-0.63981 0.55243,0.0417 c 0.30383,0.0229 1.48287,0.0601 2.62008,0.0826 l 2.06766,0.0409 0,0.58972 0,0.58972 -0.6787,-0.0148 c -0.37328,-0.008 -1.55232,-0.0228 -2.62008,-0.0325 z"
         id="path4980"
         inkscape:connector-curvature="0" />
      <path
         style="fill:#a05a2c;fill-opacity:1;stroke:none"
         d="m 928.49826,806.42798 c -0.59031,-0.0249 -1.08039,-0.05 -1.08907,-0.0557 -0.009,-0.006 -0.0158,-0.29449 -0.0158,-0.64173 l 0,-0.63134 0.24675,0 c 0.50497,0 1.82029,-0.2047 2.26418,-0.35236 0.36273,-0.12067 0.59129,-0.15272 1.08926,-0.15272 0.76451,0 3.6672,-0.15423 5.39648,-0.28674 2.42935,-0.18616 4.40298,-0.4004 6.74683,-0.73241 0.77485,-0.10976 0.94755,-0.11822 0.99063,-0.0485 0.0555,0.0897 0.53774,-0.0149 4.28967,-0.93084 2.37259,-0.57921 4.09927,-1.16091 5.07546,-1.70989 0.20457,-0.11504 0.38174,-0.19936 0.39372,-0.18738 0.04,0.0401 0.72369,1.89086 0.70493,1.90845 -0.0527,0.0494 -3.51873,0.90717 -5.44806,1.3483 -5.39493,1.23351 -9.71228,1.96201 -13.92116,2.34902 -1.51293,0.13912 -4.89107,0.20137 -6.72383,0.1239 z"
         id="path4982"
         inkscape:connector-curvature="0" />
      <path
         style="fill:none;stroke:#000000;stroke-width:1px;stroke-linecap:butt;stroke-linejoin:miter;stroke-opacity:1"
         d="m 917.47456,817.01288 17.54474,2.20019"
         id="path4984"
         inkscape:connector-curvature="0"
         sodipodi:nodetypes="cc" />
      <path
         style="fill:#a05a2c;fill-opacity:1;stroke:none"
         d="m 921.78243,834.22275 c 0.74861,-1.40734 1.23517,-3.19891 1.40394,-5.16939 0.21208,-2.47628 -0.50861,-6.68267 -1.7462,-10.19186 -0.15646,-0.44365 -0.27403,-0.81708 -0.26126,-0.82985 0.0128,-0.0128 0.94288,0.0942 2.06691,0.23765 1.5423,0.19687 2.07272,0.28665 2.16202,0.36594 0.1135,0.10079 0.11684,0.22504 0.0818,3.04084 -0.0203,1.62806 -0.0795,3.51226 -0.13297,4.23001 -0.053,0.71184 -0.12504,2.08975 -0.16,3.06202 -0.12621,3.50981 -0.31413,4.42706 -1.03741,5.06372 -0.4123,0.36292 -0.88113,0.49175 -2.22833,0.61231 l -0.39127,0.035 0.24278,-0.45641 0,0 z"
         id="path4986"
         inkscape:connector-curvature="0" />
      <path
         style="fill:#a05a2c;fill-opacity:1;stroke:none"
         d="m 934.4156,834.17352 c -0.65947,-0.069 -1.56112,-0.2507 -1.66563,-0.33574 -0.0483,-0.0393 -1.29946,-3.32445 -2.78037,-7.30034 -2.84942,-7.65 -2.9039,-7.8175 -2.51773,-7.74135 0.0955,0.0188 1.4805,0.19531 3.07781,0.39217 1.5973,0.19686 2.90904,0.36141 2.91498,0.36565 0.006,0.004 -0.0733,0.34852 -0.176,0.76505 -0.37603,1.52445 -0.51863,2.64227 -0.52346,4.10347 -0.005,1.38241 0.0375,1.76842 0.31307,2.87262 0.25379,1.01687 0.50337,1.55505 1.67118,3.60359 0.82148,1.44102 1.82957,3.26589 1.82957,3.31193 0,0.0457 -1.61942,0.0177 -2.14342,-0.037 z"
         id="path4988"
         inkscape:connector-curvature="0" />
      <path
         style="fill:#ffccaa;stroke:none"
         d="m 924.88936,415.57393 c 0,0 2.0203,0.44195 3.34613,0.37881 1.32583,-0.0631 1.6415,-0.1894 1.6415,-0.1894 0,0 -1.51523,1.04172 -2.55695,0.91545 -1.04172,-0.12627 -2.43068,-1.10486 -2.43068,-1.10486 z"
         id="path4990"
         inkscape:connector-curvature="0"
         transform="translate(0,308.2677)" />
      <path
         style="fill:#ffccaa;fill-opacity:1;stroke:none"
         d="m 896.71773,544.99978 c -0.37402,-0.25861 -0.4199,-0.31233 -0.39328,-0.46054 0.0462,-0.25699 2.42662,-17.91461 2.42662,-18.00001 0,-0.0426 0.0477,-0.0598 0.11049,-0.04 0.47777,0.15107 2.88578,0.43539 5.35065,0.63176 4.00049,0.31872 10.16804,0.51195 13.85013,0.43394 1.60572,-0.034 1.8388,-0.027 1.8388,0.0553 0,0.0518 -0.0318,0.25238 -0.0706,0.44566 l -0.0706,0.35142 -0.32402,0.036 c -1.78571,0.19824 -7.11717,0.20682 -9.47852,0.0153 -3.82936,-0.31065 -4.82876,-0.34432 -5.90308,-0.19882 -1.17094,0.15858 -2.03771,0.55731 -2.74937,1.26476 -0.50341,0.50043 -0.82616,1.01686 -1.26001,2.01613 -1.13418,2.61227 -2.00041,6.66377 -2.85313,13.34455 l -0.0507,0.3974 -0.42341,-0.29276 z"
         id="path4992"
         inkscape:connector-curvature="0"
         transform="translate(0,308.2677)" />
      <path
         style="fill:#ffccaa;fill-opacity:1;stroke:none"
         d="m 941.03759,527.87636 c -0.30635,-0.33736 -0.69958,-0.78742 -0.87384,-1.00015 l -0.31685,-0.38678 0.92583,-0.22431 c 0.50921,-0.12338 1.37784,-0.32846 1.9303,-0.45574 3.37828,-0.77831 5.35744,-1.4965 7.99107,-2.89976 2.6935,-1.43517 6.04699,-3.65373 8.52678,-5.64105 l 0.42411,-0.33988 0.0307,0.17534 c 0.0968,0.55405 0.17934,1.55589 0.1855,2.25254 l 0.007,0.79894 -0.4241,0.15496 c -6.4508,2.35699 -12.29998,4.99751 -16.78572,7.57767 -0.47879,0.2754 -0.91402,0.52342 -0.96716,0.55115 -0.0888,0.0463 -0.14182,6.7e-4 -0.65363,-0.56293 l 0,0 z"
         id="path4994"
         inkscape:connector-curvature="0"
         transform="translate(0,308.2677)" />
      <path
         style="fill:#ffccaa;fill-opacity:1;stroke:none"
         d="m 956.88363,414.46266 c -0.33371,-0.57468 -0.62359,-1.11326 -0.64416,-1.19684 -0.0222,-0.0899 0.16746,-0.40706 0.46456,-0.77697 0.27609,-0.34375 0.7492,-0.97614 1.05136,-1.40532 0.33229,-0.47198 0.59552,-0.76337 0.66615,-0.73743 0.26863,0.0987 0.8137,-0.3289 1.50097,-1.17744 3.35978,-4.14814 5.60258,-8.34777 7.42963,-13.91195 0.1935,-0.58929 0.4598,-1.35254 0.59178,-1.69613 0.16533,-0.43042 0.26534,-0.91636 0.32157,-1.5625 0.0449,-0.51579 0.12494,-1.1186 0.17789,-1.33958 0.51397,-2.14512 0.7384,-6.18275 0.53817,-9.68184 -0.18684,-3.26509 -0.49635,-5.33204 -1.18408,-7.90745 -0.28733,-1.07601 -0.28612,-1.21839 0.0171,-2.00893 l 0.10273,-0.26786 0.13419,0.25424 c 0.26475,0.50161 1.18757,2.99313 1.54468,4.17044 0.20024,0.66018 0.46911,1.74274 0.59748,2.40568 0.21844,1.1281 0.23615,1.41504 0.27627,4.47665 0.0433,3.30843 -0.0239,4.89234 -0.30082,7.08585 -0.5279,4.18143 -1.59679,7.88246 -3.2491,11.25 -0.78902,1.60806 -0.95412,1.87894 -3.48289,5.71429 -1.1656,1.76785 -2.92542,4.52009 -3.91071,6.11607 -0.98529,1.59598 -1.84646,2.97831 -1.91372,3.07184 -0.1125,0.15645 -0.17084,0.0864 -0.72904,-0.87482 l 0,0 z"
         id="path4996"
         inkscape:connector-curvature="0"
         transform="translate(0,308.2677)" />
      <path
         style="fill:#ffccaa;fill-opacity:1;stroke:none"
         d="m 896.54368,412.16656 c -0.50581,-0.81602 -2.19864,-3.44236 -3.76184,-5.83633 -2.89909,-4.43983 -4.03729,-6.45817 -4.84409,-8.58992 -1.21833,-3.21909 -1.8277,-5.75811 -2.24259,-9.34391 -0.4701,-4.063 -0.44384,-8.97717 0.0611,-11.42735 0.22276,-1.08099 1.19117,-4.15782 1.60731,-5.10674 l 0.25232,-0.57537 0.35237,1.03274 0.35236,1.03273 -0.23977,1.07608 c -0.29511,1.32438 -0.59172,3.26698 -0.75424,4.93968 -0.19434,2.00018 -0.15409,6.32853 0.0793,8.5325 0.20376,1.92381 0.20287,1.97728 -0.041,2.46225 -1.11211,2.21143 -0.33098,5.25053 1.60314,6.23724 0.32386,0.16522 0.51113,0.36196 0.56965,0.59845 0.1709,0.69059 1.36479,3.40787 2.16629,4.93042 1.49203,2.83435 4.13255,6.7616 4.82108,7.17041 0.18816,0.11172 0.63463,0.63916 0.99216,1.1721 0.35753,0.53293 0.8262,1.20364 1.0415,1.49046 l 0.39145,0.52149 -0.68283,0.58337 c -0.37556,0.32084 -0.7101,0.58336 -0.74342,0.58336 -0.0333,0 -0.47443,-0.66765 -0.98024,-1.48366 z"
         id="path4998"
         inkscape:connector-curvature="0"
         transform="translate(0,308.2677)" />
    </g>
  </g>
</svg>
